<svg xmlns="http://www.w3.org/2000/svg" width="1100" height="208" viewBox="0 0 1100 208" role="img" aria-labelledby="title">
<title id="title">PrimeAI: AI-провайдер для Astra с маршрутизацией запросов к моделям.</title>
<defs>
 <linearGradient id="accent"><stop stop-color="#bba7ff"/><stop offset="1" stop-color="#88f3cf"/></linearGradient>
 <radialGradient id="halo"><stop stop-color="#7359c4" stop-opacity=".35"/><stop offset="1" stop-color="#0c1018" stop-opacity="0"/></radialGradient>
 <linearGradient id="panel" x2="1" y2="1"><stop stop-color="#141925"/><stop offset="1" stop-color="#0b1018"/></linearGradient>
 <filter id="glow" x="-100%" y="-100%" width="300%" height="300%"><feGaussianBlur stdDeviation="4"/></filter>
</defs>
<style>
text {font-family: 'Segoe UI', Arial, sans-serif;}
.mono {font-family: Consolas, 'Courier New', monospace;}
.orbit {stroke-dasharray:90 640; animation: orbit 14s linear infinite;}
.reverse {animation-direction:reverse; animation-duration:21s;}
.pulse {animation:pulse 5s ease-in-out infinite;}
.flow {stroke-dasharray:28 190; animation:flow 9s linear infinite;}
@keyframes orbit {to {stroke-dashoffset:-730;}}
@keyframes flow {to {stroke-dashoffset:-436;}}
@keyframes pulse {0%,100% {opacity:.35;} 50% {opacity:1;}}
@media (prefers-reduced-motion:reduce) {.orbit,.pulse,.flow {animation:none;}}
</style>

<rect x=".5" y=".5" width="1099" height="207" rx="17" fill="url(#panel)" stroke="#2b3041"/>
<rect x="1" y="39" width="3" height="130" rx="1.5" fill="#bba7ff"/>
<text x="30" y="35" fill="#bba7ff" font-size="12" letter-spacing="1.8" class="mono">02 / SPHEREPRIME / INTELLIGENCE</text>
<text x="30" y="85" fill="#f1f2fa" font-size="33" font-weight="600">PrimeAI</text>
<text x="30" y="123" fill="#aeb7cb" font-size="19">AI-провайдер для Astra с маршрутизацией запросов к моделям.</text>
<text x="30" y="174" fill="#bba7ff" font-size="13" class="mono" letter-spacing="1">TYPESCRIPT   /   ROUTER API   /   ASTRA</text>
<path d="M813 30V178" stroke="#2b3041"/>
<g fill="none" stroke="#bba7ff"><path d="M877 62 942 106 1007 62M877 150l65-44 65 44M877 106h130" opacity=".45"/><circle class="pulse" cx="942" cy="106" r="24"/><circle cx="942" cy="106" r="10"/><circle cx="877" cy="62" r="6"/><circle cx="1007" cy="62" r="6"/><circle cx="877" cy="150" r="6"/><circle cx="1007" cy="150" r="6"/><path class="flow" d="M877 62 942 106 1007 150" stroke-width="2"/></g>
<path d="M1042 35h16v16m-16 0 16-16" fill="none" stroke="#adb5cb" stroke-width="1.8"/>

</svg>